<svg width="110" height="110" viewBox="0 0 110 110" fill="none" xmlns="http://www.w3.org/2000/svg">
<mask id="mask0_8219_178" style="mask-type:alpha" maskUnits="userSpaceOnUse" x="0" y="0" width="110" height="110">
<rect width="110" height="110" fill="#D9D9D9"/>
</mask>
<g mask="url(#mask0_8219_178)">
<path d="M55 68.75C56.9334 68.75 58.5624 68.0873 59.887 66.762C61.2123 65.4374 61.875 63.8084 61.875 61.875C61.875 59.9416 61.2123 58.3126 59.887 56.988C58.5624 55.6627 56.9334 55 55 55C53.0666 55 51.4376 55.6627 50.113 56.988C48.7877 58.3126 48.125 59.9416 48.125 61.875C48.125 63.8084 48.7877 65.4374 50.113 66.762C51.4376 68.0873 53.0666 68.75 55 68.75ZM21.1544 91.6667C19.0445 91.6667 17.283 90.9601 15.8698 89.5469C14.4566 88.1337 13.75 86.3722 13.75 84.2623V39.4877C13.75 37.3778 14.4566 35.6163 15.8698 34.2031C17.283 32.7899 19.0445 32.0833 21.1544 32.0833H41.25V25.7366C41.25 23.6275 41.9566 21.8663 43.3698 20.4531C44.783 19.0399 46.5445 18.3333 48.6544 18.3333H61.3456C63.4555 18.3333 65.217 19.0399 66.6302 20.4531C68.0434 21.8663 68.75 23.6275 68.75 25.7366V32.0833H88.8456C90.9555 32.0833 92.717 32.7899 94.1302 34.2031C95.5434 35.6163 96.25 37.3778 96.25 39.4877V84.2623C96.25 86.3722 95.5434 88.1337 94.1302 89.5469C92.717 90.9601 90.9555 91.6667 88.8456 91.6667H21.1544ZM21.1544 87.0833H88.8456C89.5515 87.0833 90.1981 86.7896 90.7855 86.2022C91.373 85.6148 91.6667 84.9681 91.6667 84.2623V39.4877C91.6667 38.7819 91.373 38.1352 90.7855 37.5478C90.1981 36.9604 89.5515 36.6667 88.8456 36.6667H21.1544C20.4485 36.6667 19.8019 36.9604 19.2145 37.5478C18.627 38.1352 18.3333 38.7819 18.3333 39.4877V84.2623C18.3333 84.9681 18.627 85.6148 19.2145 86.2022C19.8019 86.7896 20.4485 87.0833 21.1544 87.0833ZM45.8333 32.0833H64.1667V25.7366C64.1667 25.0315 63.873 24.3852 63.2855 23.7978C62.6981 23.2104 62.0515 22.9167 61.3456 22.9167H48.6544C47.9485 22.9167 47.3019 23.2104 46.7145 23.7978C46.1271 24.3852 45.8333 25.0315 45.8333 25.7366V32.0833Z" fill="url(#paint0_linear_8219_178)"/>
</g>
<defs>
<linearGradient id="paint0_linear_8219_178" x1="55" y1="18.3333" x2="55" y2="91.6667" gradientUnits="userSpaceOnUse">
<stop stop-color="#6533FF"/>
<stop offset="1" stop-color="#00D0FF"/>
</linearGradient>
</defs>
</svg>
