<svg width="120" height="120" viewBox="0 0 120 120" fill="none" xmlns="http://www.w3.org/2000/svg">
<mask id="mask0_8219_177" style="mask-type:alpha" maskUnits="userSpaceOnUse" x="0" y="0" width="120" height="120">
<rect width="120" height="120" fill="#D9D9D9"/>
</mask>
<g mask="url(#mask0_8219_177)">
<path d="M51.7688 64.7514L48.635 61.6164C49.1733 60.6997 49.5512 59.6822 49.7687 58.5639C49.9871 57.4456 50.0962 56.2902 50.0962 55.0977C50.0962 53.9052 49.9713 52.7497 49.7213 51.6314C49.4712 50.5131 49.0771 49.5372 48.5387 48.7039L51.6725 45.5401C52.6217 46.8026 53.3333 48.2801 53.8075 49.9726C54.2817 51.6651 54.5188 53.3735 54.5188 55.0977C54.5188 56.8218 54.2979 58.5414 53.8563 60.2564C53.4138 61.9714 52.7179 63.4697 51.7688 64.7514ZM61.5288 74.4439L58.365 71.2802C60.32 68.8827 61.7546 66.2993 62.6688 63.5301C63.5821 60.761 64.0387 57.9181 64.0387 55.0014C64.0387 52.0847 63.5821 49.2464 62.6688 46.4864C61.7546 43.7272 60.32 41.181 58.365 38.8476L61.5288 35.6839C63.8496 38.4472 65.585 41.4906 66.735 44.8139C67.8858 48.1372 68.4613 51.5331 68.4613 55.0014C68.4613 58.4697 67.8858 61.8706 66.735 65.2039C65.585 68.5372 63.8496 71.6172 61.5288 74.4439ZM25 57.5014C22.8908 57.5014 21.1138 56.7785 19.6688 55.3327C18.2229 53.8877 17.5 52.1106 17.5 50.0014C17.5 47.8922 18.2229 46.1151 19.6688 44.6701C21.1138 43.2243 22.8908 42.5014 25 42.5014C27.1092 42.5014 28.8862 43.2243 30.3312 44.6701C31.7771 46.1151 32.5 47.8922 32.5 50.0014C32.5 52.1106 31.7771 53.8877 30.3312 55.3327C28.8862 56.7785 27.1092 57.5014 25 57.5014ZM7.5 77.5014V76.6451C7.5 75.2226 7.91333 73.9506 8.74 72.8289C9.5675 71.7064 10.6829 70.8247 12.0863 70.1839C14.0604 69.2672 16.1296 68.591 18.2938 68.1552C20.4571 67.7193 22.6925 67.5014 25 67.5014C27.3075 67.5014 29.5429 67.7193 31.7062 68.1552C33.8704 68.591 35.9396 69.2672 37.9137 70.1839C39.3171 70.8247 40.4325 71.7064 41.26 72.8289C42.0867 73.9506 42.5 75.2226 42.5 76.6451V77.5014H7.5ZM95 57.5014C92.8908 57.5014 91.1138 56.7785 89.6687 55.3327C88.2229 53.8877 87.5 52.1106 87.5 50.0014C87.5 47.8922 88.2229 46.1151 89.6687 44.6701C91.1138 43.2243 92.8908 42.5014 95 42.5014C97.1092 42.5014 98.8863 43.2243 100.331 44.6701C101.777 46.1151 102.5 47.8922 102.5 50.0014C102.5 52.1106 101.777 53.8877 100.331 55.3327C98.8863 56.7785 97.1092 57.5014 95 57.5014ZM77.5 77.5014V76.6451C77.5 75.2226 77.9133 73.9506 78.74 72.8289C79.5675 71.7064 80.6829 70.8247 82.0863 70.1839C84.0604 69.2672 86.1296 68.591 88.2938 68.1552C90.4571 67.7193 92.6925 67.5014 95 67.5014C97.3075 67.5014 99.5429 67.7193 101.706 68.1552C103.87 68.591 105.94 69.2672 107.914 70.1839C109.317 70.8247 110.433 71.7064 111.26 72.8289C112.087 73.9506 112.5 75.2226 112.5 76.6451V77.5014H77.5Z" fill="url(#paint0_linear_8219_177)"/>
</g>
<defs>
<linearGradient id="paint0_linear_8219_177" x1="60" y1="35.6839" x2="60" y2="77.5014" gradientUnits="userSpaceOnUse">
<stop stop-color="#6533FF"/>
<stop offset="1" stop-color="#00D0FF"/>
</linearGradient>
</defs>
</svg>
