<svg width="120" height="120" viewBox="0 0 120 120" fill="none" xmlns="http://www.w3.org/2000/svg">
<mask id="mask0_8219_176" style="mask-type:alpha" maskUnits="userSpaceOnUse" x="0" y="0" width="120" height="120">
<rect width="120" height="120" fill="#D9D9D9"/>
</mask>
<g mask="url(#mask0_8219_176)">
<path d="M50 70V50H70V70H50ZM55 65H65V55H55V65ZM47.5 97.6925V90H38.0775C35.7758 90 33.8542 89.2292 32.3125 87.6875C30.7708 86.1458 30 84.2242 30 81.9225V72.5H22.3075V67.5H30V52.5H22.3075V47.5H30V38.0775C30 35.7758 30.7708 33.8542 32.3125 32.3125C33.8542 30.7708 35.7758 30 38.0775 30H47.5V22.3075H52.5V30H67.5V22.3075H72.5V30H81.9225C84.2242 30 86.1458 30.7708 87.6875 32.3125C89.2292 33.8542 90 35.7758 90 38.0775V47.5H97.6925V52.5H90V67.5H97.6925V72.5H90V81.9225C90 84.2242 89.2292 86.1458 87.6875 87.6875C86.1458 89.2292 84.2242 90 81.9225 90H72.5V97.6925H67.5V90H52.5V97.6925H47.5ZM81.9225 85C82.6925 85 83.3979 84.6796 84.0387 84.0387C84.6796 83.3979 85 82.6925 85 81.9225V38.0775C85 37.3075 84.6796 36.6021 84.0387 35.9612C83.3979 35.3204 82.6925 35 81.9225 35H38.0775C37.3075 35 36.6021 35.3204 35.9613 35.9612C35.3204 36.6021 35 37.3075 35 38.0775V81.9225C35 82.6925 35.3204 83.3979 35.9613 84.0387C36.6021 84.6796 37.3075 85 38.0775 85H81.9225Z" fill="url(#paint0_linear_8219_176)"/>
</g>
<defs>
<linearGradient id="paint0_linear_8219_176" x1="60" y1="22.3075" x2="60" y2="97.6925" gradientUnits="userSpaceOnUse">
<stop stop-color="#6533FF"/>
<stop offset="1" stop-color="#00D0FF"/>
</linearGradient>
</defs>
</svg>
