<svg width="90" height="90" viewBox="0 0 90 90" fill="none" xmlns="http://www.w3.org/2000/svg">
<mask id="mask0_8219_179" style="mask-type:alpha" maskUnits="userSpaceOnUse" x="0" y="0" width="90" height="90">
<rect width="90" height="90" fill="#D9D9D9"/>
</mask>
<g mask="url(#mask0_8219_179)">
<path d="M43.8819 74.7818C44.3719 74.7818 44.8741 74.6712 45.3885 74.4499C45.9029 74.2293 46.3188 73.9603 46.6363 73.6428L75.8723 44.4068C76.8141 43.4649 77.5413 42.5012 78.0538 41.5156C78.5657 40.5299 78.8216 39.4481 78.8216 38.2699C78.8216 37.0774 78.5657 35.9199 78.0538 34.7974C77.5413 33.6749 76.8141 32.6496 75.8723 31.7215L61.8098 17.659C60.8816 16.7171 59.9285 16.0262 58.9504 15.5862C57.9716 15.1462 56.8863 14.9262 55.6944 14.9262C54.5163 14.9262 53.4226 15.1462 52.4132 15.5862C51.4032 16.0262 50.4513 16.7171 49.5576 17.659L46.2904 20.9262L53.2279 27.8852C53.9729 28.6159 54.5282 29.4477 54.8938 30.3809C55.2588 31.3134 55.4413 32.2602 55.4413 33.2215C55.4413 35.174 54.8032 36.7884 53.5269 38.0646C52.2507 39.3409 50.6366 39.979 48.6848 39.979C47.7229 39.979 46.7841 39.8324 45.8685 39.5393C44.9529 39.2462 44.1294 38.734 43.3982 38.0027L36.2226 30.8496L20.0329 47.0393C19.6535 47.4193 19.3688 47.8509 19.1788 48.334C18.9888 48.8171 18.8938 49.3037 18.8938 49.7937C18.8938 50.6787 19.1776 51.4084 19.7451 51.9828C20.3119 52.5571 21.0379 52.8443 21.9229 52.8443C22.4129 52.8443 22.9151 52.7337 23.4294 52.5124C23.9438 52.2918 24.3598 52.0228 24.6773 51.7052L36.5619 39.8206L39.216 42.4746L27.3529 54.3593C26.9729 54.7387 26.6879 55.1699 26.4979 55.6531C26.3085 56.1362 26.2138 56.6231 26.2138 57.1137C26.2138 57.9506 26.5094 58.6646 27.1007 59.2559C27.6919 59.8471 28.4057 60.1428 29.2419 60.1428C29.7326 60.1428 30.2351 60.0321 30.7494 59.8109C31.2638 59.5896 31.6798 59.3203 31.9973 59.0028L44.7473 46.2752L47.4013 48.9284L34.6729 61.6784C34.341 61.9959 34.0682 62.4118 33.8544 62.9262C33.6401 63.4406 33.5329 63.9431 33.5329 64.4337C33.5329 65.2699 33.8285 65.9837 34.4198 66.5749C35.0116 67.1668 35.7257 67.4628 36.5619 67.4628C37.0526 67.4628 37.5394 67.3678 38.0226 67.1778C38.5057 66.9878 38.9369 66.7028 39.3163 66.3228L52.0663 53.5943L54.7204 56.2484L41.9704 68.9984C41.591 69.3784 41.3063 69.834 41.1163 70.3653C40.9263 70.8965 40.8313 71.3831 40.8313 71.8249C40.8313 72.7099 41.1426 73.424 41.7651 73.9671C42.3876 74.5103 43.0932 74.7818 43.8819 74.7818ZM43.8604 78.5318C41.9323 78.5318 40.2819 77.8265 38.9094 76.4159C37.5369 75.0046 36.9348 73.2628 37.1029 71.1903C34.9779 71.2146 33.2085 70.5803 31.7948 69.2871C30.3816 67.9934 29.711 66.1881 29.7829 63.8712C27.466 63.8949 25.6404 63.2327 24.306 61.8846C22.9716 60.5359 22.3648 58.7581 22.4854 56.5512C20.3985 56.5756 18.6532 55.989 17.2494 54.7915C15.8457 53.5946 15.1438 51.9287 15.1438 49.7937C15.1438 48.8324 15.3301 47.8699 15.7026 46.9062C16.0751 45.9418 16.6266 45.0943 17.3573 44.3637L36.2226 25.5199L45.9079 35.2052C46.2254 35.5371 46.6173 35.8099 47.0835 36.0237C47.5498 36.2374 48.0763 36.3443 48.6632 36.3443C49.4657 36.3443 50.1748 36.0643 50.7904 35.5043C51.406 34.9443 51.7138 34.2146 51.7138 33.3152C51.7138 32.729 51.6066 32.2027 51.3923 31.7365C51.1785 31.2702 50.9057 30.8784 50.5738 30.5609L37.6729 17.659C36.7448 16.7171 35.7794 16.0262 34.7769 15.5862C33.7744 15.1462 32.6773 14.9262 31.4854 14.9262C30.3073 14.9262 29.2376 15.1462 28.2763 15.5862C27.3144 16.0262 26.3623 16.7171 25.4198 17.659L14.0038 29.0965C13.2013 29.8996 12.5526 30.8565 12.0576 31.9671C11.5619 33.0777 11.2998 34.2243 11.271 35.4068C11.2423 36.2531 11.3144 37.0668 11.4876 37.8481C11.6607 38.6293 11.9348 39.3637 12.3098 40.0512L9.46819 42.8928C8.83819 41.8878 8.34538 40.7302 7.98975 39.4202C7.63413 38.1102 7.47069 36.7724 7.49944 35.4068C7.52819 33.7049 7.86944 32.074 8.52319 30.514C9.17694 28.954 10.1123 27.5659 11.3291 26.3496L22.6729 15.0059C23.9804 13.7121 25.3638 12.7506 26.8232 12.1212C28.2819 11.4912 29.8601 11.1762 31.5576 11.1762C33.2544 11.1762 34.8204 11.4912 36.2554 12.1212C37.6904 12.7506 39.0544 13.7121 40.3476 15.0059L43.6148 18.2721L46.8819 15.0059C48.1894 13.7121 49.5607 12.7506 50.9957 12.1212C52.4307 11.4912 53.9969 11.1762 55.6944 11.1762C57.3913 11.1762 58.9694 11.4912 60.4288 12.1212C61.8876 12.7506 63.2638 13.7121 64.5576 15.0059L78.5263 28.9746C79.8194 30.2677 80.8169 31.7196 81.5188 33.3302C82.2207 34.9409 82.5716 36.5946 82.5716 38.2915C82.5716 39.989 82.2207 41.5552 81.5188 42.9902C80.8169 44.4252 79.8194 45.7893 78.5263 47.0824L49.2904 76.2968C48.5116 77.0756 47.6641 77.6428 46.7479 77.9984C45.8323 78.354 44.8698 78.5318 43.8604 78.5318Z" fill="url(#paint0_linear_8219_179)"/>
</g>
<defs>
<linearGradient id="paint0_linear_8219_179" x1="45.0339" y1="11.1762" x2="45.0339" y2="78.5318" gradientUnits="userSpaceOnUse">
<stop stop-color="#6533FF"/>
<stop offset="1" stop-color="#00D0FF"/>
</linearGradient>
</defs>
</svg>
