<svg width="100" height="100" viewBox="0 0 100 100" fill="none" xmlns="http://www.w3.org/2000/svg">
<mask id="mask0_8219_238" style="mask-type:alpha" maskUnits="userSpaceOnUse" x="0" y="0" width="100" height="100">
<rect width="100" height="100" fill="url(#paint0_linear_8219_238)"/>
</mask>
<g mask="url(#mask0_8219_238)">
<path d="M38.2208 92.4194C35.0264 92.4194 32.2288 91.331 29.8281 89.1541C27.4267 86.9781 25.7719 84.1884 24.8635 80.7852C24.0198 82.3665 22.8542 83.5764 21.3667 84.4151C19.8785 85.2538 18.3118 85.6731 16.6667 85.6731C13.766 85.6731 11.3049 84.5331 9.28333 82.2531C7.26111 79.9739 6.25 77.2058 6.25 73.9487C6.25 71.0684 7.14201 68.4457 8.92604 66.0805C10.7101 63.7145 12.9618 62.5162 15.6812 62.4857C14.2812 61.0429 13.174 59.3069 12.3594 57.2778C11.5448 55.2487 11.1375 53.1367 11.1375 50.9419C11.1375 48.3398 11.7024 45.9008 12.8323 43.6247C13.9622 41.3478 15.5448 39.4699 17.5802 37.9911C17.7698 38.6828 18.0253 39.4222 18.3469 40.2093C18.6691 40.9972 18.9986 41.7069 19.3354 42.3385C18.0424 43.4382 17.0646 44.7494 16.4021 46.272C15.7396 47.7939 15.4083 49.3896 15.4083 51.0591C15.4083 55.9169 17.0056 59.0493 20.2 60.4563C23.3944 61.8632 26.6826 62.9395 30.0646 63.6852L31.0021 65.5435C30.2382 68.0447 29.6184 70.1594 29.1427 71.8876C28.667 73.6165 28.4292 75.2146 28.4292 76.6817C28.4292 79.6034 29.3698 82.1601 31.251 84.3518C33.1323 86.5435 35.4288 87.6393 38.1406 87.6393C41.1003 87.6393 43.5285 86.3856 45.425 83.8781C47.3208 81.3715 48.8778 78.3954 50.0958 74.95C51.3139 71.5046 52.2583 67.9603 52.9292 64.3171C53.5993 60.6731 54.1615 57.694 54.6156 55.3796L58.7344 56.6693C58.1628 59.7653 57.4788 63.3698 56.6823 67.4827C55.8865 71.5948 54.7528 75.4924 53.2812 79.1755C51.8097 82.8577 49.8788 85.9858 47.4885 88.5597C45.0976 91.1328 42.0083 92.4194 38.2208 92.4194ZM16.6667 80.9834C18.3812 80.9834 19.8517 80.2936 21.0781 78.914C22.3038 77.5337 22.9167 75.8786 22.9167 73.9487C22.9167 72.0189 22.3038 70.3638 21.0781 68.9834C19.8517 67.6039 18.3812 66.9141 16.6667 66.9141C14.9521 66.9141 13.4816 67.6039 12.2552 68.9834C11.0295 70.3638 10.4167 72.0189 10.4167 73.9487C10.4167 75.8786 11.0295 77.5337 12.2552 78.914C13.4816 80.2936 14.9521 80.9834 16.6667 80.9834ZM42.0031 61.6475C39.183 58.8031 36.6042 56.144 34.2667 53.6702C31.9299 51.1963 29.9108 48.7701 28.2094 46.3916C26.508 44.0139 25.2007 41.6362 24.2875 39.2585C23.3736 36.88 22.9167 34.4042 22.9167 31.8311C22.9167 27.4102 24.2611 23.6865 26.95 20.66C29.6389 17.6336 32.9472 16.1203 36.875 16.1203C37.6333 16.1203 38.317 16.17 38.926 16.2692C39.5351 16.3685 40.1122 16.5084 40.6573 16.689C40.326 15.9675 40.0642 15.2254 39.8719 14.4625C39.6795 13.7004 39.5833 12.9 39.5833 12.0613C39.5833 8.80508 40.5951 6.03694 42.6188 3.75693C44.6424 1.47692 47.0997 0.336914 49.9906 0.336914C52.8816 0.336914 55.342 1.47692 57.3719 3.75693C59.4017 6.03694 60.4167 8.80508 60.4167 12.0613C60.4167 12.9211 60.3205 13.7223 60.1281 14.4648C59.9358 15.2074 59.674 15.9398 59.3427 16.662C59.8878 16.4814 60.4649 16.3458 61.074 16.2552C61.683 16.1653 62.3667 16.1203 63.125 16.1203C66.2764 16.1203 69.0302 17.129 71.3865 19.1464C73.742 21.1638 75.358 23.7385 76.2344 26.8705C75.5795 26.7563 74.8427 26.6993 74.024 26.6993C73.2059 26.6993 72.4576 26.7474 71.7792 26.8435C71.0257 25.0458 69.8865 23.5907 68.3615 22.4785C66.8365 21.3662 65.1028 20.8101 63.1604 20.8101C60.5458 20.8101 58.4681 21.5663 56.9271 23.0788C55.3861 24.5904 53.3816 26.9607 50.9135 30.1896H48.9823C46.4448 26.8646 44.4056 24.4701 42.8646 23.0061C41.3236 21.5421 39.3271 20.8101 36.875 20.8101C34.0521 20.8101 31.7146 21.8528 29.8625 23.9382C28.0097 26.0228 27.0833 28.6537 27.0833 31.8311C27.0833 33.6483 27.4948 35.5247 28.3177 37.46C29.1399 39.3953 30.3229 41.4377 31.8667 43.5871C33.4111 45.7366 35.2837 48.0229 37.4844 50.4459C39.6851 52.869 42.1823 55.4874 44.976 58.3013L42.0031 61.6475ZM50 19.096C51.7146 19.096 53.1851 18.4062 54.4115 17.0266C55.6371 15.6471 56.25 13.992 56.25 12.0613C56.25 10.1315 55.6371 8.47679 54.4115 7.09721C53.1851 5.71686 51.7146 5.02668 50 5.02668C48.2854 5.02668 46.8149 5.71686 45.5885 7.09721C44.3628 8.47679 43.75 10.1315 43.75 12.0613C43.75 13.992 44.3628 15.6471 45.5885 17.0266C46.8149 18.4062 48.2854 19.096 50 19.096ZM61.5146 92.5097C60.5257 92.5097 59.5483 92.3905 58.5823 92.1521C57.6163 91.9144 56.684 91.5377 55.7854 91.0218C56.1715 90.4598 56.5576 89.7974 56.9437 89.0345C57.3299 88.2717 57.6809 87.569 57.9969 86.9265C58.6135 87.2149 59.2306 87.4209 59.8479 87.5444C60.4646 87.6679 61.0816 87.7296 61.699 87.7296C64.4017 87.7296 66.7132 86.6365 68.6333 84.4503C70.5542 82.2649 71.5146 79.6663 71.5146 76.6547C71.5146 75.1876 71.2767 73.6048 70.801 71.9063C70.326 70.2078 69.7066 68.108 68.9427 65.6068L69.9604 63.7485C73.4111 63.0028 76.7163 61.9116 79.876 60.475C83.0358 59.0376 84.6156 55.89 84.6156 51.0322C84.6156 47.2444 83.4309 44.4364 81.0615 42.6082C78.6927 40.7807 76.0257 39.867 73.0604 39.867C70.2604 39.867 66.9937 40.402 63.2604 41.4721C59.5271 42.5421 55.2163 43.994 50.3281 45.8277L49.1823 41.193C53.958 39.4789 58.2569 38.0177 62.0792 36.8093C65.9007 35.6009 69.409 34.9967 72.6042 34.9967C76.8083 34.9967 80.5555 36.3887 83.8458 39.1729C87.1368 41.9563 88.7823 45.9094 88.7823 51.0322C88.7823 53.2012 88.3882 55.2615 87.6 57.2133C86.8125 59.165 85.7188 60.9225 84.3188 62.4857C87.0382 62.5764 89.2899 63.7747 91.074 66.0805C92.858 68.3863 93.75 71.009 93.75 73.9487C93.75 77.1354 92.7389 79.8864 90.7167 82.2015C88.6951 84.5159 86.234 85.6731 83.3333 85.6731C81.6882 85.6731 80.1215 85.2538 78.6333 84.4151C77.1458 83.5764 75.9802 82.3665 75.1365 80.7852C74.2281 84.1884 72.5465 86.9933 70.0917 89.1999C67.6375 91.4064 64.7785 92.5097 61.5146 92.5097ZM83.4375 80.9834C85.1521 80.9834 86.6052 80.2936 87.7969 78.914C88.9878 77.5337 89.5833 75.8786 89.5833 73.9487C89.5833 72.0189 88.9705 70.3442 87.7448 68.9248C86.5184 67.5061 85.0479 66.7968 83.3333 66.7968C81.6187 66.7968 80.1483 67.4866 78.9219 68.8662C77.6962 70.2465 77.0833 71.9016 77.0833 73.8315C77.0833 75.7613 77.7135 77.436 78.974 78.8554C80.2351 80.274 81.7229 80.9834 83.4375 80.9834Z" fill="url(#paint1_linear_8219_238)"/>
</g>
<defs>
<linearGradient id="paint0_linear_8219_238" x1="50" y1="0" x2="50" y2="100" gradientUnits="userSpaceOnUse">
<stop stop-color="#6533FF"/>
<stop offset="1" stop-color="#00D0FF"/>
</linearGradient>
<linearGradient id="paint1_linear_8219_238" x1="50" y1="0.336914" x2="50" y2="92.5097" gradientUnits="userSpaceOnUse">
<stop stop-color="#6533FF"/>
<stop offset="1" stop-color="#00D0FF"/>
</linearGradient>
</defs>
</svg>
