<svg width="102" height="102" viewBox="0 0 102 102" fill="none" xmlns="http://www.w3.org/2000/svg">
<mask id="mask0_8219_241" style="mask-type:alpha" maskUnits="userSpaceOnUse" x="0" y="0" width="102" height="102">
<rect width="102" height="102" fill="#D9D9D9"/>
</mask>
<g mask="url(#mask0_8219_241)">
<path d="M50.9992 94.9747C48.1659 94.9747 45.7686 93.8554 43.8072 91.6167C41.8458 89.3787 40.8651 86.6653 40.8651 83.4762C40.8651 82.2987 41.0078 81.1961 41.2933 80.1684C41.5795 79.1415 41.9896 78.1804 42.5237 77.2851L24.2157 56.7433C23.4203 57.3261 22.5487 57.7873 21.6009 58.1269C20.6525 58.4674 19.6824 58.6376 18.6907 58.6376C15.8574 58.6376 13.4643 57.5186 11.5114 55.2807C9.55785 53.042 8.58105 50.3281 8.58105 47.1391C8.58105 43.95 9.55785 41.2362 11.5114 38.9974C13.4643 36.7595 15.8574 35.6406 18.6907 35.6406C21.1812 35.6406 23.3473 36.522 25.189 38.2847C27.0307 40.0482 28.1856 42.2331 28.6538 44.8394H41.118C41.5373 42.5823 42.4472 40.6705 43.8476 39.1039C45.2479 37.5365 46.9508 36.5168 48.9561 36.0448V22.0158C46.6405 21.4888 44.7131 20.1733 43.1739 18.0693C41.6347 15.9662 40.8651 13.5437 40.8651 10.8019C40.8651 7.61288 41.8593 4.91455 43.8476 2.70693C45.8366 0.499316 48.2477 -0.604492 51.0811 -0.604492C53.9144 -0.604492 56.3256 0.499316 58.3146 2.70693C60.3028 4.91455 61.297 7.61288 61.297 10.8019C61.297 11.9181 61.15 13.0099 60.8561 14.0775C60.5621 15.1442 60.1481 16.1252 59.614 17.0206L77.8401 37.5349C78.6356 36.9337 79.5072 36.4677 80.4549 36.1369C81.4034 35.806 82.3735 35.6406 83.3651 35.6406C86.1985 35.6406 88.5958 36.7595 90.5572 38.9974C92.5186 41.2362 93.4992 43.95 93.4992 47.1391C93.4992 50.3281 92.5186 53.042 90.5572 55.2807C88.5958 57.5186 86.1985 58.6376 83.3651 58.6376C80.9292 58.6376 78.7769 57.7713 76.9083 56.0389C75.039 54.3064 73.8703 52.1371 73.4021 49.5309H61.0197C60.5996 51.7879 59.6802 53.7045 58.2614 55.2807C56.8419 56.8569 55.1295 57.881 53.1242 58.3529V72.3544C55.4398 72.8814 57.381 74.1814 58.9478 76.2542C60.5139 78.3271 61.297 80.7345 61.297 83.4762C61.297 86.6653 60.289 89.3787 58.2731 91.6167C56.2572 93.8554 53.8326 94.9747 50.9992 94.9747ZM48.9561 72.3544V58.3529C47.9807 58.1385 47.0627 57.7674 46.2021 57.2396C45.3407 56.7126 44.5601 56.0548 43.8603 55.2663C43.1598 54.4787 42.5754 53.6001 42.1072 52.6306C41.6383 51.6619 41.3085 50.6287 41.118 49.5309H28.6538C28.5993 49.8561 28.527 50.1858 28.4371 50.5199C28.3471 50.8539 28.2437 51.188 28.1268 51.522C28.0099 51.8569 27.8792 52.1714 27.7347 52.4656C27.5902 52.7598 27.428 53.048 27.2481 53.3302C27.6568 53.7902 28.7657 55.0228 30.5748 57.0279C32.3839 59.0338 34.3265 61.2095 36.4026 63.5551C38.478 65.9006 40.4203 68.0915 42.2294 70.1277L45.5561 73.872C45.8068 73.6695 46.0671 73.4869 46.337 73.3243C46.6062 73.1617 46.8895 73.0098 47.187 72.8687C47.4838 72.7276 47.7806 72.6219 48.0774 72.5518C48.3742 72.4816 48.6671 72.4158 48.9561 72.3544ZM61.0197 44.7473H73.4021C73.4566 44.4037 73.5285 44.0648 73.6177 43.7308C73.7077 43.3967 73.8154 43.0627 73.9407 42.7286C74.0661 42.3938 74.201 42.0749 74.3456 41.7719C74.4901 41.4682 74.6523 41.1843 74.8322 40.9204C74.4235 40.4604 73.328 39.2123 71.5459 37.1761C69.7644 35.1399 67.8356 32.9538 65.7595 30.6178C63.6841 28.2811 61.7418 26.1097 59.9327 24.1038C58.1237 22.0987 57.0148 20.8661 56.6061 20.4061C56.3716 20.6086 56.1194 20.7912 55.8496 20.9538C55.5804 21.1165 55.2971 21.2684 54.9996 21.4095C54.7028 21.5506 54.406 21.6714 54.1092 21.7718C53.8124 21.8731 53.5113 21.9544 53.2061 22.0158V36.0448C54.1651 36.2409 55.0792 36.6073 55.9484 37.1438C56.8175 37.6804 57.5843 38.3381 58.2487 39.117C58.9138 39.896 59.4982 40.7594 60.0018 41.7073C60.5061 42.6545 60.8454 43.6678 61.0197 44.7473ZM83.3651 53.854C85.0049 53.854 86.3954 53.2118 87.5365 51.9274C88.6783 50.6422 89.2492 49.0461 89.2492 47.1391C89.2492 45.2934 88.6783 43.7128 87.5365 42.3974C86.3954 41.0819 85.0049 40.4241 83.3651 40.4241C81.6701 40.4241 80.252 41.0819 79.1109 42.3974C77.969 43.7128 77.3981 45.2934 77.3981 47.1391C77.3981 49.0461 77.969 50.6422 79.1109 51.9274C80.252 53.2118 81.6701 53.854 83.3651 53.854ZM51.0811 53.854C52.7208 53.854 54.1251 53.2118 55.2939 51.9274C56.4626 50.6422 57.047 49.0461 57.047 47.1391C57.047 45.2934 56.4626 43.7128 55.2939 42.3974C54.1251 41.0819 52.7208 40.4241 51.0811 40.4241C49.3867 40.4241 47.9686 41.0819 46.8268 42.3974C45.6857 43.7128 45.1151 45.2934 45.1151 47.1391C45.1151 49.0461 45.6857 50.6422 46.8268 51.9274C47.9686 53.2118 49.3867 53.854 51.0811 53.854ZM51.0811 90.1912C52.7208 90.1912 54.1251 89.5334 55.2939 88.2179C56.4626 86.9025 57.047 85.3219 57.047 83.4762C57.047 81.6298 56.4626 80.0488 55.2939 78.7333C54.1251 77.4178 52.7208 76.7601 51.0811 76.7601C49.3867 76.7601 47.9686 77.4178 46.8268 78.7333C45.6857 80.0488 45.1151 81.6298 45.1151 83.4762C45.1151 85.3219 45.6857 86.9025 46.8268 88.2179C47.9686 89.5334 49.3867 90.1912 51.0811 90.1912ZM18.797 53.854C20.4375 53.854 21.8421 53.2118 23.0109 51.9274C24.1796 50.6422 24.764 49.0461 24.764 47.1391C24.764 45.2934 24.1796 43.7128 23.0109 42.3974C21.8421 41.0819 20.4375 40.4241 18.797 40.4241C17.1572 40.4241 15.7529 41.0819 14.5842 42.3974C13.4154 43.7128 12.8311 45.2934 12.8311 47.1391C12.8311 49.0461 13.4154 50.6422 14.5842 51.9274C15.7529 53.2118 17.1572 53.854 18.797 53.854ZM51.0811 17.518C52.7208 17.518 54.1251 16.8755 55.2939 15.5903C56.4626 14.3059 57.047 12.7098 57.047 10.8019C57.047 8.95626 56.4626 7.37569 55.2939 6.06021C54.1251 4.74473 52.7208 4.08699 51.0811 4.08699C49.3867 4.08699 47.9686 4.74473 46.8268 6.06021C45.6857 7.37569 45.1151 8.95626 45.1151 10.8019C45.1151 12.7098 45.6857 14.3059 46.8268 15.5903C47.9686 16.8755 49.3867 17.518 51.0811 17.518Z" fill="url(#paint0_linear_8219_241)"/>
</g>
<defs>
<linearGradient id="paint0_linear_8219_241" x1="51.0401" y1="-0.604492" x2="51.0401" y2="94.9747" gradientUnits="userSpaceOnUse">
<stop stop-color="#6533FF"/>
<stop offset="1" stop-color="#00D0FF"/>
</linearGradient>
</defs>
</svg>
